<svg width="26" height="25" viewBox="0 0 26 25" fill="none" xmlns="http://www.w3.org/2000/svg">
<path d="M25.0797 13.2499C25.0097 13.6999 24.9697 14.1599 24.8897 14.6099C24.5042 16.7735 23.5488 18.7952 22.122 20.4667C20.6952 22.1382 18.8485 23.399 16.7722 24.1193C14.696 24.8396 12.4652 24.9932 10.3097 24.5645C8.15432 24.1357 6.15219 23.14 4.50965 21.6799C2.19519 19.7224 0.73807 16.9374 0.449656 13.9199C0.0933463 10.9706 0.816528 7.99193 2.48557 5.53432C4.15462 3.0767 6.65674 1.3062 9.52966 0.549927C10.2497 0.359927 10.9997 0.289922 11.7397 0.169922H11.9497H13.4897H13.6797C15.7254 0.301944 17.7009 0.967345 19.4097 2.09992C20.8525 3.01169 22.0865 4.21791 23.0308 5.63962C23.9752 7.06132 24.6086 8.66646 24.8897 10.3499C24.9697 10.7999 25.0097 11.2499 25.0797 11.6999V13.2499ZM1.32966 12.4799C1.32966 14.7326 1.99767 16.9348 3.24922 18.8079C4.50077 20.6809 6.27964 22.1408 8.3609 23.0029C10.4421 23.865 12.7323 24.0905 14.9417 23.6511C17.1512 23.2116 19.1807 22.1268 20.7736 20.5339C22.3665 18.941 23.4513 16.9114 23.8908 14.702C24.3303 12.4926 24.1047 10.2024 23.2426 8.12115C22.3806 6.0399 20.9207 4.26103 19.0476 3.00948C17.1745 1.75793 14.9724 1.08992 12.7197 1.08992C9.69966 1.09257 6.8041 2.29344 4.66863 4.4289C2.53317 6.56437 1.33231 9.45992 1.32966 12.4799Z" fill="white"/>
<path d="M11.2695 14.8896V10.6696C11.2695 10.2296 11.4395 10.0696 11.8895 10.0596H13.5695C13.9895 10.0596 14.1695 10.2396 14.1695 10.6496V19.1296C14.1695 19.5396 13.9895 19.7096 13.5795 19.7096H11.8595C11.4395 19.7096 11.2695 19.5396 11.2695 19.1096V14.8896Z" fill="white"/>
<path d="M12.7197 5.24023C13.0073 5.24026 13.2884 5.32583 13.5273 5.48606C13.7661 5.64629 13.952 5.87394 14.0611 6.14006C14.1702 6.40618 14.1978 6.69875 14.1402 6.98055C14.0826 7.26236 13.9425 7.52067 13.7377 7.72263C13.5329 7.9246 13.2727 8.0611 12.9901 8.11477C12.7075 8.16844 12.4154 8.13686 12.1508 8.02404C11.8862 7.91122 11.6612 7.72226 11.5043 7.48119C11.3474 7.24013 11.2657 6.95784 11.2697 6.67023C11.2775 6.28997 11.4334 5.92776 11.7042 5.66068C11.975 5.39361 12.3393 5.24276 12.7197 5.24023Z" fill="white"/>
</svg>
