<svg width="31" height="31" viewBox="0 0 31 31" fill="none" xmlns="http://www.w3.org/2000/svg">
<path d="M27.9349 18.4885C29.5055 11.8341 25.3842 5.16635 18.7297 3.59576C12.0753 2.02516 5.40757 6.14645 3.83698 12.8009C2.26638 19.4554 6.38765 26.1231 13.0421 27.6937C19.6966 29.2643 26.3643 25.143 27.9349 18.4885Z" fill="white"/>
<path d="M19.5802 17.7002C19.5907 18.0502 19.5225 18.3982 19.3806 18.7184C19.2386 19.0386 19.0266 19.3228 18.7602 19.5502C18.0838 20.0906 17.2549 20.4054 16.3902 20.4502V22.1302H15.3902V20.5002C14.3112 20.518 13.2397 20.3173 12.2402 19.9102V18.2702C12.736 18.5079 13.2555 18.6923 13.7902 18.8202C14.3133 18.9563 14.85 19.0335 15.3902 19.0502V16.1502L14.7402 15.9102C14.0348 15.6812 13.3962 15.283 12.8802 14.7502C12.4868 14.2806 12.2803 13.6825 12.3002 13.0702C12.2943 12.7328 12.3661 12.3986 12.5101 12.0934C12.654 11.7882 12.8662 11.5202 13.1302 11.3102C13.7829 10.8125 14.5706 10.5232 15.3902 10.4802V9.17017H16.3902V10.4502C17.4206 10.4809 18.437 10.6977 19.3902 11.0902L18.8302 12.5002C18.0569 12.1892 17.241 11.997 16.4102 11.9302V14.7502L17.0002 14.9702C17.7458 15.2209 18.4282 15.6303 19.0002 16.1702C19.3796 16.5888 19.5867 17.1353 19.5802 17.7002ZM14.0902 13.0502C14.0808 13.3225 14.1776 13.5879 14.3602 13.7902C14.6504 14.0498 14.9908 14.2472 15.3602 14.3702V12.0002C14.9966 12.025 14.6486 12.1573 14.3602 12.3802C14.2728 12.4682 14.2039 12.5728 14.1575 12.6879C14.1111 12.8029 14.0883 12.9261 14.0902 13.0502ZM17.7502 17.8202C17.7524 17.6821 17.7261 17.5451 17.6727 17.4177C17.6193 17.2903 17.5402 17.1754 17.4402 17.0802C17.1294 16.8279 16.7729 16.6377 16.3902 16.5202V19.0002C17.3002 18.8502 17.7502 18.4602 17.7502 17.8202Z" fill="url(#paint0_linear_2833_5732)"/>
<path d="M23.91 26.4505C23.277 26.4478 22.6706 26.1952 22.2229 25.7475C21.7753 25.2999 21.5227 24.6935 21.52 24.0605V22.3805C21.52 21.7466 21.7718 21.1387 22.22 20.6905C22.6682 20.2423 23.2762 19.9905 23.91 19.9905C24.5439 19.9905 25.1518 20.2423 25.6 20.6905C26.0482 21.1387 26.3 21.7466 26.3 22.3805V24.0605C26.2974 24.6935 26.0447 25.2999 25.5971 25.7475C25.1494 26.1952 24.5431 26.4478 23.91 26.4505ZM23.91 20.7405C23.4768 20.7431 23.0622 20.9171 22.7568 21.2243C22.4514 21.5316 22.28 21.9472 22.28 22.3805V24.0605C22.28 24.4928 22.4517 24.9074 22.7574 25.2131C23.0631 25.5187 23.4777 25.6905 23.91 25.6905C24.3423 25.6905 24.7569 25.5187 25.0626 25.2131C25.3683 24.9074 25.54 24.4928 25.54 24.0605V22.3805C25.54 21.9472 25.3686 21.5316 25.0632 21.2243C24.7578 20.9171 24.3432 20.7431 23.91 20.7405Z" fill="url(#paint1_linear_2833_5732)"/>
<path d="M27.5201 23.0403H20.29V27.5203H27.5201V23.0403Z" fill="url(#paint2_linear_2833_5732)"/>
<path fill-rule="evenodd" clip-rule="evenodd" d="M23.9099 26.2907C23.825 26.2907 23.7436 26.257 23.6836 26.197C23.6236 26.1369 23.5898 26.0556 23.5898 25.9707V24.5907C23.5924 24.5076 23.6273 24.4287 23.687 24.3708C23.7468 24.313 23.8267 24.2806 23.9099 24.2807C23.9514 24.2793 23.9928 24.2864 24.0316 24.3013C24.0703 24.3163 24.1057 24.3389 24.1355 24.3679C24.1654 24.3968 24.1891 24.4314 24.2053 24.4697C24.2215 24.508 24.2299 24.5491 24.2298 24.5907V26.0007C24.2224 26.0802 24.1854 26.1541 24.1261 26.2078C24.0669 26.2615 23.9898 26.291 23.9099 26.2907Z" fill="white"/>
<defs>
<linearGradient id="paint0_linear_2833_5732" x1="1107.6" y1="2415.2" x2="1161.7" y2="2415.2" gradientUnits="userSpaceOnUse">
<stop stop-color="#332756"/>
<stop offset="1" stop-color="#707AD7"/>
</linearGradient>
<linearGradient id="paint1_linear_2833_5732" x1="779.245" y1="1268.19" x2="802.094" y2="1268.19" gradientUnits="userSpaceOnUse">
<stop stop-color="#332756"/>
<stop offset="1" stop-color="#707AD7"/>
</linearGradient>
<linearGradient id="paint2_linear_2833_5732" x1="1157.5" y1="897.897" x2="1209.84" y2="897.897" gradientUnits="userSpaceOnUse">
<stop stop-color="#332756"/>
<stop offset="1" stop-color="#707AD7"/>
</linearGradient>
</defs>
</svg>
